<?xml version="1.0" encoding="UTF-8"?>
<svg id="Layer_1" data-name="Layer 1" xmlns="http://www.w3.org/2000/svg" viewBox="0 0 55.01 51.02">
  <path d="m12,18.83c-1.05,0-1.89.85-1.89,1.89s.85,1.89,1.89,1.89,1.89-.85,1.89-1.89-.85-1.89-1.89-1.89Z" style="fill: #fff; stroke-width: 0px;"/>
  <circle cx="30.71" cy="20.67" r="2.04" style="fill: #fff; stroke-width: 0px;"/>
  <path d="m47.65,0H7.36C3.29,0,0,3.3,0,7.36v23.91c0,4.06,3.29,7.36,7.36,7.36h14.23l4.84,11.4s.33.99,1.14.99h0c.81,0,1.14-.99,1.14-.99l4.84-11.4h14.1c4.06,0,7.36-3.29,7.36-7.36V7.36C55.01,3.3,51.71,0,47.65,0Zm-30.37,21.14c-.02,4.37-4.54,4.5-4.54,4.5-1.75,0-2.73-1.16-2.73-1.16v.79h-3.29v-13.57s-.01,0,0,0h0c.2.04,3.29,0,3.29,0v5.19c.77-1.32,3.01-1.3,3.01-1.3,4.87.45,4.26,5.56,4.26,5.56Zm5.79-5.15v9.29h-3.22v-9.2c0-1.25-1.55-1.6-1.55-1.6v-3.24c5.15.21,4.77,4.75,4.77,4.75Zm7.64,9.65c-2.98,0-5.4-2.23-5.4-4.97s2.42-4.97,5.4-4.97,5.4,2.23,5.4,4.97-2.42,4.97-5.4,4.97Zm17.65,0s.05,4.72-4.75,4.72h-1.46v-3.06h.88s2.02.19,1.99-2.92c0,0-.39,1.26-3.22,1.26,0,0-4.01-.29-4.01-4.2v-1.48s.09-4.06,4.5-4.38c0,0,1.74-.19,2.8,1.25v-1h3.27v9.81Z" style="fill: #fff; stroke-width: 0px;"/>
  <circle cx="43.24" cy="20.67" r="1.99" style="fill: #fff; stroke-width: 0px;"/>
</svg>