<?xml version="1.0" encoding="UTF-8"?>
<svg id="_레이어_1" data-name="레이어 1" xmlns="http://www.w3.org/2000/svg" viewBox="0 0 18 18">
  <polygon points="6.6 8.32 7.67 8.32 7.16 6.7 6.6 8.32" style="fill: #fff; stroke-width: 0px;"/>
  <path d="m9,.73C4.03.73,0,3.92,0,7.85c0,2.56,1.71,4.8,4.27,6.05-.19.7-.68,2.55-.78,2.94-.12.49.18.48.38.35.16-.1,2.47-1.68,3.46-2.35.54.08,1.1.12,1.67.12,4.97,0,9-3.19,9-7.11S13.97.73,9,.73Zm-4.39,8.95c0,.43-.96.43-.96,0,0-.59,0-3.14,0-3.14h-.93c-.54,0-.54-.89,0-.89,0,0,2.17.02,2.82.02.58,0,.58.91,0,.91-.61,0-.92,0-.92,0v3.11Zm3.54.11c-.23-.59-.17-.62-.17-.62h-1.7l-.19.65c-.2.45-1.05.08-.85-.37.27-.63,1.1-3,1.32-3.5.09-.2.3-.28.52-.28.26,0,.53.12.61.28.16.35,1.06,2.82,1.32,3.51.18.48-.7.81-.88.33Zm3.44.22c-.44,0-1.42,0-1.86,0s-.37-.52-.37-.52c0,0,0-2.6,0-3.4,0-.28.25-.43.5-.43s.5.14.5.42c0,.58,0,2.99,0,2.99,0,0,.79,0,1.23,0s.44.93,0,.93Zm2.99-.07l-1.22-1.67-.28.22s0,.82,0,1.26c0,.37-.95.37-.95,0,0-.24.02-3.43.01-3.78,0-.19.24-.3.49-.3.23,0,.45.09.46.27.01.48,0,1.35,0,1.35,0,0,1.38-1.38,1.58-1.57.2-.2.83.43.63.63-.35.34-1.23,1.3-1.23,1.3l1.3,1.71c.25.33-.53.91-.78.59Z" style="fill: #fff; stroke-width: 0px;"/>
</svg>